<svg xmlns="http://www.w3.org/2000/svg" width="268" height="68" viewBox="0 0 268 68"><path fill="#929292" d="M8.484 26.606h8.122v-8.122c0-2.347.903-4.513 2.527-5.957C20.577 10.902 22.743 10 25.09 10s4.332.903 5.957 2.527c1.444 1.444 2.527 3.61 2.527 5.957v8.122h8.123c2.166 0 4.332.903 5.956 2.527C49.097 30.577 50 32.743 50 35.09s-.903 4.332-2.347 5.957c-1.624 1.444-3.79 2.527-5.956 2.527h-8.123v8.123c0 2.166-1.083 4.332-2.527 5.956C29.422 59.097 27.437 60 25.09 60s-4.512-.903-5.957-2.347c-1.624-1.624-2.527-3.79-2.527-5.956v-8.123H8.484c-2.347 0-4.513-1.083-5.957-2.527C.902 39.422 0 37.437 0 35.09s.903-4.512 2.527-5.957c1.444-1.624 3.61-2.527 5.957-2.527M29.06 43.574h-.18c-1.264.542-2.527.903-3.79.903a8.4 8.4 0 0 1-3.791-.903h-.361v8.123c0 1.083.36 1.985 1.263 2.888.722.722 1.625 1.083 2.888 1.083 1.083 0 2.166-.361 2.888-1.083.722-.903 1.083-1.805 1.083-2.888zm4.513-4.693v.18h8.123c1.083 0 1.985-.36 2.888-1.083.722-.722 1.083-1.805 1.083-2.888 0-1.263-.361-2.166-1.083-2.888-.903-.902-1.805-1.263-2.888-1.263h-8.123v.18c.542 1.264.903 2.527.903 3.971 0 1.264-.361 2.527-.903 3.791Zm-16.968.18v-.18c-.541-1.264-.902-2.527-.902-3.79 0-1.445.36-2.708.902-3.972v-.18H8.484c-1.083 0-2.166.36-2.888 1.263-.722.722-1.264 1.625-1.264 2.888 0 1.083.542 2.166 1.264 2.888s1.805 1.083 2.888 1.083zM21.3 26.606a8.4 8.4 0 0 1 3.79-.902c1.264 0 2.527.36 3.79.902h.182v-8.122c0-1.083-.361-2.166-1.083-2.888s-1.805-1.264-2.888-1.264c-1.264 0-2.166.542-2.888 1.264-.903.722-1.264 1.805-1.264 2.888v8.122zm7.761 9.567v-2.346a3.47 3.47 0 0 0-.722-2.166c-.541-.361-1.263-.722-2.166-.722h-2.346c-.722 0-1.445.36-2.167.722-.36.722-.722 1.444-.722 2.166v2.346c0 .903.361 1.625.722 2.166a3.47 3.47 0 0 0 2.167.722h2.346c.903 0 1.625-.18 2.166-.722.542-.541.722-1.444.722-2.166"/><text xml:space="preserve" x="62" y="49" fill="#d5d5d5" font-family="Helvetica" font-size="34" font-weight="700">X COMPANY</text></svg>