<?xml version="1.0" encoding="UTF-8"?>
<!-- Generated by Pixelmator Pro 3.6.13 -->
<svg width="268" height="68" viewBox="0 0 268 68" xmlns="http://www.w3.org/2000/svg">
    <path id="Path-copy" fill="#929292" stroke="none" d="M 8.483763 26.606426 L 16.606424 26.606426 L 16.606424 18.483765 C 16.606424 16.137131 17.509056 13.971119 19.133436 12.527016 C 20.577442 10.902382 22.74345 10 25.090189 10 C 27.436821 10 29.422409 10.90263 31.046942 12.527016 C 32.490948 13.97102 33.573952 16.137028 33.573952 18.483765 L 33.573952 26.606426 L 41.696613 26.606426 C 43.862625 26.606426 46.028831 27.509056 47.65337 29.133438 C 49.097374 30.577446 50 32.743454 50 35.090191 C 50 37.436821 49.097374 39.422409 47.65337 41.046944 C 46.028736 42.490948 43.862724 43.573956 41.696613 43.573956 L 33.573952 43.573956 L 33.573952 51.696617 C 33.573952 53.862625 32.490948 56.028831 31.046942 57.65337 C 29.422308 59.097374 27.436922 60 25.090189 60 C 22.743551 60 20.577543 59.097374 19.133436 57.65337 C 17.508802 56.028736 16.606424 53.862724 16.606424 51.696617 L 16.606424 43.573956 L 8.483763 43.573956 C 6.137127 43.573956 3.971117 42.490948 2.527011 41.046944 C 0.902379 39.42231 0 37.436924 0 35.090191 C 0 32.743553 0.902629 30.577545 2.527011 29.133438 C 3.971017 27.508804 6.137028 26.606426 8.483763 26.606426 Z M 29.061407 43.574051 L 28.880804 43.574051 C 27.617174 44.115631 26.353794 44.476685 25.090164 44.476685 C 23.646158 44.476685 22.382528 44.115681 21.29952 43.574051 L 20.938522 43.574051 L 20.938522 51.696716 C 20.938522 52.77972 21.29952 53.68235 22.202152 54.584728 C 22.924154 55.306732 23.82678 55.667732 25.090164 55.667732 C 26.173168 55.667732 27.256174 55.306732 27.978178 54.584728 C 28.700182 53.682098 29.06118 52.77972 29.06118 51.696716 L 29.06118 43.574051 Z M 33.574051 38.880833 L 33.574051 39.061432 L 41.696716 39.061432 C 42.779716 39.061432 43.682346 38.700432 44.584728 37.978428 C 45.306728 37.256424 45.667732 36.17342 45.667732 35.090416 C 45.667732 33.826782 45.306728 32.924408 44.584728 32.202404 C 43.682095 31.299774 42.779716 30.93877 41.696716 30.93877 L 33.574051 30.93877 L 33.574051 31.119373 C 34.115631 32.383003 34.476681 33.646381 34.476681 35.090389 C 34.476681 36.354023 34.115677 37.617401 33.574051 38.881035 Z M 16.606424 39.061432 L 16.606424 38.880833 C 16.064848 37.617203 15.703796 36.353821 15.703796 35.090191 C 15.703796 33.646183 16.064798 32.382553 16.606424 31.119171 L 16.606424 30.938572 L 8.483763 30.938572 C 7.400759 30.938572 6.317754 31.299572 5.59575 32.202202 C 4.873747 32.924206 4.332119 33.826836 4.332119 35.090218 C 4.332119 36.173218 4.873698 37.256226 5.59575 37.978226 C 6.317754 38.700233 7.400759 39.061234 8.483763 39.061234 L 16.606424 39.061234 Z M 21.299646 26.606453 C 22.382648 26.064873 23.646284 25.703823 25.09029 25.703823 C 26.35392 25.703823 27.6173 26.064823 28.880932 26.606453 L 29.061533 26.606453 L 29.061533 18.483791 C 29.061533 17.400787 28.700531 16.317783 27.978527 15.595776 C 27.256521 14.873775 26.173519 14.332146 25.090511 14.332146 C 23.826881 14.332146 22.924501 14.873722 22.202501 15.595776 C 21.299873 16.317783 20.938869 17.400787 20.938869 18.483791 L 20.938869 26.606453 L 21.299873 26.606453 Z M 29.061157 36.173218 L 29.061157 33.826584 C 29.061157 33.10458 28.880554 32.382576 28.339153 31.660576 C 27.797575 31.299572 27.075523 30.938572 26.173143 30.938572 L 23.826506 30.938572 C 23.104504 30.938572 22.3825 31.299572 21.660496 31.660576 C 21.299498 32.382576 20.938494 33.10458 20.938494 33.826584 L 20.938494 36.173218 C 20.938494 37.075848 21.299498 37.797852 21.660496 38.339226 C 22.3825 38.880806 23.104504 39.061234 23.826506 39.061234 L 26.173143 39.061234 C 27.075773 39.061234 27.797777 38.88063 28.339153 38.339226 C 28.880732 37.797653 29.061157 36.895222 29.061157 36.173218 Z"/>
    <text id="X-COMPANY" xml:space="preserve" x="62" y="49" font-family="Helvetica" font-size="34" font-weight="700" fill="#d5d5d5">X COMPANY</text>
</svg>
